# xmcd
#
# Track frame offsets:
#	150
#	15274
#	30450
#	43087
#	58963
#	72697
#	86145
#	101983
#	122042
#	138277
#	154045
#	171833
#	192031
#
# Disc length: 2797 seconds
#
# Revision: 2
# Processed by: cddbd v1.4PL0 Copyright (c) Steve Scherf et al.
# Submitted via: EasyCDDAExtractor 5.0.7
#
DISCID=b30aeb0d
DTITLE=B. B. King - Reflections
DYEAR=2003
DGENRE=Blues
TTITLE0=Exactly Like You
TTITLE1=Word Of Honor
TTITLE2=I Want A Little Girl
TTITLE3=I'll String Along With You
TTITLE4=I Need You So
TTITLE5=A Mothers Love
TTITLE6=For Sentimental Reasons (I Love You)
TTITLE7=Neighborhood Affair
TTITLE8=Tomorrow Night
TTITLE9=There I've Said It Again
TTITLE10=Always On My Mind
TTITLE11=Cross My Heart
TTITLE12=What A Wonderful World
EXTD=
EXTT0=
EXTT1=
EXTT2=
EXTT3=
EXTT4=
EXTT5=
EXTT6=
EXTT7=
EXTT8=
EXTT9=
EXTT10=
EXTT11=
EXTT12=
PLAYORDER=
